<?xml version="1.0" encoding="utf-8"?>
<!-- Generator: Adobe Illustrator 25.4.1, SVG Export Plug-In . SVG Version: 6.00 Build 0)  -->
<svg version="1.1" id="Layer_1" xmlns="http://www.w3.org/2000/svg" xmlns:xlink="http://www.w3.org/1999/xlink" x="0px" y="0px"
	 viewBox="0 0 1025.54 326.1" style="enable-background:new 0 0 1025.54 326.1;" xml:space="preserve">
<style type="text/css">
	.st0{fill:#262622;}
</style>
<g>
	<path class="st0" d="M916.27,104.66c-26.17,0-44.82,10.42-56.93,34.65v-29.8h-44.09v161.84h45.06v-71.95
		c0-42.4,21.32-54.27,42.64-54.27c27.86,0,32.46,20.59,32.46,45.3v80.92h45.06v-93.28C980.48,124.29,952.13,104.66,916.27,104.66z"
		/>
	<path class="st0" d="M713.49,104.66c-55.96,0-91.34,37.31-91.34,85.76c0,48.46,35.37,85.76,91.34,85.76
		c55.96,0,91.34-37.31,91.34-85.76C804.83,141.97,769.46,104.66,713.49,104.66z M713.49,238.15c-27.86,0-45.55-21.08-45.55-47.73
		c0-26.65,17.69-47.72,45.55-47.72s45.55,21.08,45.55,47.72C759.04,217.08,741.35,238.15,713.49,238.15z"/>
	<path class="st0" d="M353.48,139.31c-10.66-26.65-33.43-34.65-56.21-34.65c-44.34,0-83.34,31.5-83.34,85.76
		c0,54.27,39,85.76,83.34,85.76c22.78,0,45.55-8,56.21-34.64v29.8h44.09V109.51h-44.09V139.31z M303.33,238.15
		c-26.89,0-43.61-21.08-43.61-47.73c0-26.65,16.72-47.72,43.61-47.72c28.83,0,47.48,21.08,47.48,47.72
		C350.81,217.08,332.16,238.15,303.33,238.15z"/>
	<polygon class="st0" points="184.37,109.51 141,200.04 97.64,109.51 45.06,109.51 136.4,281.04 143.67,281.04 235.01,109.51 	"/>
	<rect x="413.32" y="45.06" class="st0" width="45.06" height="226.29"/>
	<path class="st0" d="M468.8,190.43c0,47.49,31.5,85.76,90.61,85.76c20.35,0,40.94-4.6,56.21-16.72v-39.49l-3.15-1.45
		c-18.17,15.5-33.19,19.14-48.21,19.14c-39.25,0-49.67-27.37-49.67-47.24c0-19.86,10.42-47.24,49.67-47.24
		c15.02,0,30.04,3.63,48.21,19.14l3.15-1.45v-39.49c-15.26-12.11-35.85-16.72-56.21-16.72C500.29,104.66,468.8,142.94,468.8,190.43z
		"/>
</g>
</svg>
